<svg width="20" height="19" viewBox="0 0 20 19" fill="none" xmlns="http://www.w3.org/2000/svg">
<path d="M9.37891 1.54785C9.56771 0.937185 10.4323 0.93719 10.6211 1.54785L11.8184 5.4209C12.0968 6.32148 12.9295 6.93631 13.8721 6.93652H17.8281C18.4514 6.93652 18.7176 7.72842 18.2207 8.10449L14.8906 10.623C14.1689 11.1689 13.8665 12.1091 14.1338 12.9736L15.3867 17.0264C15.5734 17.6313 14.8728 18.1193 14.3701 17.7344L11.3076 15.3877C10.5361 14.7967 9.46386 14.7967 8.69238 15.3877L5.61328 17.7471C5.11126 18.1311 4.41157 17.6446 4.59668 17.04L5.83203 13.0049C6.09492 12.1463 5.79679 11.214 5.08398 10.668L1.73438 8.10254C1.24116 7.7247 1.50858 6.93652 2.12988 6.93652H6.12793C7.07053 6.93631 7.90322 6.32147 8.18164 5.4209L9.37891 1.54785Z" stroke="#FAFAFA" stroke-width="1.5"/>
</svg>
